<svg xmlns="http://www.w3.org/2000/svg" width="20" height="18.75" viewBox="0 0 20 18.75">
  <path id="Icon_metro-tree" data-name="Icon metro-tree" d="M21.633,17.606h-.312V13.544a2.19,2.19,0,0,0-2.187-2.187H13.821v-2.5h.313a.94.94,0,0,0,.938-.937V4.794a.94.94,0,0,0-.938-.937H11.008a.94.94,0,0,0-.937.937V7.919a.94.94,0,0,0,.938.938h.313v2.5H6.008a2.19,2.19,0,0,0-2.188,2.188v4.062H3.508a.94.94,0,0,0-.937.938v3.125a.94.94,0,0,0,.938.938H6.633a.94.94,0,0,0,.938-.938V18.544a.94.94,0,0,0-.937-.938H6.321v-3.75h5v3.75h-.312a.94.94,0,0,0-.937.938v3.125a.94.94,0,0,0,.938.938h3.125a.94.94,0,0,0,.938-.938V18.544a.94.94,0,0,0-.938-.938h-.312v-3.75h5v3.75h-.312a.94.94,0,0,0-.937.938v3.125a.94.94,0,0,0,.938.938h3.125a.94.94,0,0,0,.938-.938V18.544a.94.94,0,0,0-.937-.938ZM6.321,21.356h-2.5v-2.5h2.5Zm7.5,0h-2.5v-2.5h2.5Zm-2.5-13.75v-2.5h2.5v2.5h-2.5Zm10,13.75h-2.5v-2.5h2.5Z" transform="translate(-2.571 -3.856)" fill="#fff"/>
</svg>
