<?xml version="1.0" encoding="utf-8"?>
<svg xmlns="http://www.w3.org/2000/svg" width="16" height="15" viewBox="0 0 16 15">
  <path id="Icon_metro-tree" data-name="Icon metro-tree" d="M17.821,14.856h-.25v-3.25a1.752,1.752,0,0,0-1.75-1.75h-4.25v-2h.25a.752.752,0,0,0,.75-.75v-2.5a.752.752,0,0,0-.75-.75h-2.5a.752.752,0,0,0-.75.75v2.5a.752.752,0,0,0,.75.75h.25v2H5.321a1.752,1.752,0,0,0-1.75,1.75v3.25h-.25a.752.752,0,0,0-.75.75v2.5a.752.752,0,0,0,.75.75h2.5a.752.752,0,0,0,.75-.75v-2.5a.752.752,0,0,0-.75-.75h-.25v-3h4v3h-.25a.752.752,0,0,0-.75.75v2.5a.752.752,0,0,0,.75.75h2.5a.752.752,0,0,0,.75-.75v-2.5a.752.752,0,0,0-.75-.75h-.25v-3h4v3h-.25a.752.752,0,0,0-.75.75v2.5a.752.752,0,0,0,.75.75h2.5a.752.752,0,0,0,.75-.75v-2.5a.752.752,0,0,0-.75-.75Zm-12.25,3h-2v-2h2Zm6,0h-2v-2h2Zm-2-11v-2h2v2h-2Zm8,11h-2v-2h2Z" transform="translate(-2.571 -3.856)" fill="#7a7a7a"/>
</svg>