<?xml version="1.0" encoding="utf-8"?>
<svg xmlns="http://www.w3.org/2000/svg" width="18.671" height="16" viewBox="0 0 18.671 16">
  <path id="Icon_ionic-md-eye-off" data-name="Icon ionic-md-eye-off" d="M11.587,7.867a4.232,4.232,0,0,1,4.246,4.213,4.052,4.052,0,0,1-.3,1.542l2.479,2.458a9.961,9.961,0,0,0,2.913-4A10.055,10.055,0,0,0,8.2,6.35l1.833,1.821A4.2,4.2,0,0,1,11.587,7.867ZM3.1,5.571,5.037,7.492l.392.387a9.913,9.913,0,0,0-3.179,4.2A10.07,10.07,0,0,0,15.3,17.688l.358.354L18.15,20.5l1.079-1.071L4.175,4.5Zm4.692,4.654,1.317,1.3a2.387,2.387,0,0,0-.067.546A2.533,2.533,0,0,0,11.587,14.6a2.4,2.4,0,0,0,.55-.067l1.317,1.3a4.224,4.224,0,0,1-6.112-3.767A4.162,4.162,0,0,1,7.792,10.225Zm3.658-.654,2.675,2.654.017-.133A2.533,2.533,0,0,0,11.6,9.567Z" transform="translate(-2.25 -4.5)" fill="#6b6b6b"/>
</svg>