<?xml version="1.0" encoding="utf-8"?>
<svg id="Icon_awesome-blogger" data-name="Icon awesome-blogger" xmlns="http://www.w3.org/2000/svg" width="15" height="15" viewBox="0 0 15 15">
  <path id="Icon_awesome-blogger-2" data-name="Icon awesome-blogger" d="M5.438,7.744c.161-.164.208-.171,1.219-.171.911,0,.941,0,1.075.07a.455.455,0,0,1,.278.455.5.5,0,0,1-.254.449c-.094.06-.151.064-1.041.07a9.191,9.191,0,0,1-1.055-.027.53.53,0,0,1-.221-.847Zm2.056,3.165c-1.8,0-1.868.007-2.016.137a.592.592,0,0,0-.171.466.579.579,0,0,0,.308.4,10.81,10.81,0,0,0,1.885.04l1.6-.02.308-.05a.513.513,0,0,0,.1-.817c-.177-.157-.167-.157-2.022-.157Zm7.48,4.357a2.234,2.234,0,0,1-1.711,1.926c-.241.06-.325.064-5.789.06a56.559,56.559,0,0,1-5.759-.06,2.4,2.4,0,0,1-.747-.335A2.7,2.7,0,0,1,.4,16.307a2.879,2.879,0,0,1-.335-.737C0,15.346,0,15.256,0,9.763,0,4.3,0,4.184.06,3.946A2.258,2.258,0,0,1,1.775,2.3c.244-.054,11.12-.064,11.385-.01a2.239,2.239,0,0,1,1.594,1.219c.258.512.234-.05.244,6.048C15,13.434,15,15.065,14.974,15.266Zm-2.86-6.2a.6.6,0,0,0-.258-.385,2.752,2.752,0,0,0-.519-.057c-.415-.02-.462-.027-.6-.1-.208-.121-.265-.255-.268-.613a2.664,2.664,0,0,0-.847-1.892,3.152,3.152,0,0,0-1.359-.841,7.235,7.235,0,0,0-1.313-.06,5.237,5.237,0,0,0-2.247.208A2.956,2.956,0,0,0,2.92,7.409a14.545,14.545,0,0,0-.064,2.153,9.523,9.523,0,0,0,.134,2.83,2.922,2.922,0,0,0,2.163,1.956c.308.057,4.092.07,4.477.017a2.773,2.773,0,0,0,1.7-.867,2.833,2.833,0,0,0,.73-1.289,22.878,22.878,0,0,0,.057-3.145Z" transform="translate(0 -2.253)" fill="#7a7a7a"/>
</svg>