<?xml version="1.0" encoding="utf-8"?>
<svg xmlns="http://www.w3.org/2000/svg" width="16.425" height="12.856" viewBox="0 0 16.425 12.856">
  <path id="Icon_map-moving-company" data-name="Icon map-moving-company" d="M3.295,19.076c-.677,0-1.227.866-1.227,1.931s.548,1.926,1.227,1.929,1.229-.866,1.228-1.929S3.974,19.079,3.295,19.076Zm0,2.925c-.34,0-.614-.434-.613-.966s.274-.962.613-.965.615.433.615.965a1.29,1.29,0,0,1-.179.683A.536.536,0,0,1,3.295,22Zm10.794-2.925c-.678,0-1.227.866-1.227,1.931s.548,1.927,1.227,1.929,1.228-.864,1.228-1.929-.549-1.928-1.228-1.931Zm0,2.925c-.34,0-.614-.434-.614-.966s.274-.963.614-.965.615.433.615.965-.275.965-.615.966ZM16.805,10.08H6.011c-.188,0-.34.24-.34.534v4.843h-.68V12.484a.713.713,0,0,0-.1-.377.3.3,0,0,0-.241-.157H2.335c-.4,0-.764.467-.829,1.136v-.035l-.361,3.207v.011a.782.782,0,0,0-.425.791l.011.171-.011,0,.51,3.608h.531V20.8c0-1.293.676-2.34,1.509-2.34s1.509,1.047,1.509,2.34v.033h7.777V20.8c0-1.293.676-2.34,1.508-2.34s1.509,1.047,1.509,2.34v.033h1.574V10.614c0-.294-.152-.533-.34-.534Zm-13,2.738v2.64H1.761l.255-2.24c.021-.268.17-.465.319-.465H3.8v.065Z" transform="translate(-0.72 -10.08)" fill="#7a7a7a"/>
</svg>