<svg xmlns="http://www.w3.org/2000/svg" width="27" height="33" viewBox="0 0 27 33">
  <g id="Icon_feather-clipboard" data-name="Icon feather-clipboard" transform="translate(-4.5 -1.5)">
    <path id="패스_294" data-name="패스 294" d="M24,6h3a3,3,0,0,1,3,3V30a3,3,0,0,1-3,3H9a3,3,0,0,1-3-3V9A3,3,0,0,1,9,6h3" fill="none" stroke="#000" stroke-linecap="round" stroke-linejoin="round" stroke-width="3"/>
    <path id="패스_295" data-name="패스 295" d="M13.5,3h9A1.5,1.5,0,0,1,24,4.5v3A1.5,1.5,0,0,1,22.5,9h-9A1.5,1.5,0,0,1,12,7.5v-3A1.5,1.5,0,0,1,13.5,3Z" fill="none" stroke="#000" stroke-linecap="round" stroke-linejoin="round" stroke-width="3"/>
  </g>
</svg>
